# xmcd
#
# Track frame offsets:
#	150
#	16520
#	28758
#	45591
#	59336
#	76180
#	92506
#	108483
#	123516
#	139733
#	153543
#
# Disc length: 2422 seconds
#
# Revision: 0
# Processed by: cddbd v1.5.1PL0 Copyright (c) Steve Scherf et al.
# Submitted via: audiograbber 1.83.01
#
DISCID=8109740b
DTITLE=Peterson, Michael - Michael Peterson - Peterson, Michael - Michael Peter
DTITLE=son
DYEAR=1997
DGENRE=Country
TTITLE0=Lost In The Shuffle
TTITLE1=Love' s Great
TTITLE2=When The Bartender Cries
TTITLE3=Drink, Swear, Steal and Lie
TTITLE4=I Finally Passed The Bar
TTITLE5=From Here To Eternity
TTITLE6=That's What They Said About The Buffalo
TTITLE7=Too Good  To Be True
TTITLE8=Since I Thought I Knew It All
TTITLE9=By The Book
TTITLE10=For A Song
EXTD=
EXTT0=
EXTT1=
EXTT2=
EXTT3=
EXTT4=
EXTT5=
EXTT6=
EXTT7=
EXTT8=
EXTT9=
EXTT10=
PLAYORDER=
